<svg width="86" height="52" viewBox="0 0 86 52" fill="none" xmlns="http://www.w3.org/2000/svg">
<g clip-path="url(#clip0_3194_11348)">
<path d="M30.9729 0.15467L17.9108 3.48602C15.2646 4.16186 13.6643 6.8542 14.3401 9.50234L23.5202 45.5284C24.1942 48.1766 26.8884 49.775 29.5347 49.101L42.5967 45.7697C45.243 45.0938 46.8433 42.4015 46.1675 39.7533L36.9874 3.72726C36.3134 1.07912 33.6192 -0.519334 30.9729 0.15467Z" fill="#00CA43"/>
<path d="M21.9604 3.52469L18.7893 4.33313C16.4818 4.92242 15.0878 7.27039 15.6752 9.57968L16.4837 12.7508C17.0711 15.0601 19.4191 16.4542 21.7284 15.8649L24.8995 15.0564C27.207 14.4671 28.601 12.1192 28.0135 9.80988L27.2051 6.63874C26.6177 4.32945 24.2697 2.9354 21.9604 3.52469Z" fill="#F8F8F8"/>
<path d="M20.2464 15.0284C21.5034 15.0235 22.5186 14.0006 22.5138 12.7435C22.5089 11.4864 21.486 10.4713 20.2289 10.4761C18.9718 10.4809 17.9567 11.5039 17.9615 12.761C17.9663 14.018 18.9893 15.0332 20.2464 15.0284Z" fill="#0F0F0F"/>
<path d="M19.1495 9.93705C20.4066 9.93222 21.4217 8.90925 21.4169 7.65218C21.4121 6.39511 20.3891 5.37996 19.132 5.38479C17.875 5.38962 16.8598 6.41259 16.8646 7.66966C16.8695 8.92673 17.8924 9.94187 19.1495 9.93705Z" fill="#0F0F0F"/>
<path d="M23.9934 11.5482C25.2505 11.5434 26.2657 10.5204 26.2608 9.26332C26.256 8.00625 25.233 6.9911 23.976 6.99593C22.7189 7.00076 21.7037 8.02373 21.7086 9.2808C21.7134 10.5379 22.7364 11.553 23.9934 11.5482Z" fill="#0F0F0F"/>
<path d="M38.8971 11.3163C38.6577 10.3329 38.1512 9.95904 37.5417 9.95904C35.4663 9.95904 34.4829 12.8595 34.2693 14.4819C34.0041 16.6365 34.4553 19.2183 34.4553 19.2183C34.8015 19.5645 35.2526 19.7505 35.7057 19.7505C36.5307 19.7505 37.4349 19.1649 38.0739 17.8887C39.1125 15.8667 39.2709 12.8613 38.8989 11.3181L38.8971 11.3163ZM44.4567 12.6219C44.4567 15.6807 43.418 19.2993 41.3979 22.1998C39.3759 25.1002 36.8769 25.2862 35.5989 25.2862C34.3208 25.2862 32.1128 25.2862 31.4499 24.8332C30.7851 24.3802 30.1203 23.29 30.1737 22.4373C30.2529 21.5608 30.7335 20.8426 30.8642 18.8721C30.9434 17.6751 30.7851 14.0049 30.5714 11.6625C29.6949 11.4489 29.3744 10.3329 29.2676 9.55943C29.0282 7.85784 31.1036 6.71241 31.9287 6.73819C32.4332 6.76581 32.912 6.845 33.7647 6.845C34.2693 6.845 34.9064 6.81737 35.7591 6.73819C36.3171 6.68662 36.9027 6.659 37.5159 6.659C39.3759 6.659 41.2671 6.95181 42.0921 7.5632C43.1823 8.38821 44.4603 9.55943 44.4603 12.6182H44.4585L44.4567 12.6219Z" fill="#0F0F0F"/>
<path d="M52.9941 14.6421C52.9941 12.5943 52.1414 10.9443 51.0789 10.9443C50.0163 10.9443 49.136 12.5943 49.136 14.6421C49.136 16.6899 50.0126 18.3123 51.0789 18.3123C52.1451 18.3123 52.9941 16.6623 52.9941 14.6421ZM58.1541 15.9459C58.1541 21.0801 55.121 25.2328 51.3993 25.2328C47.6775 25.2328 44.6703 21.082 44.6703 15.9459C44.6703 10.8098 47.6757 6.66268 51.3993 6.66268C55.1229 6.66268 58.1541 10.8135 58.1541 15.9459Z" fill="#0F0F0F"/>
<path d="M71.3726 10.9443C71.0264 11.1026 70.5992 11.1837 70.1222 11.1837C69.0596 11.1837 67.8092 10.8632 66.8774 10.7049C65.4944 10.4913 63.9512 11.0253 63.3674 12.2481C62.8094 13.4727 63.5534 14.2701 63.5534 14.2701L63.7394 14.4045C64.2993 14.353 64.9088 14.2977 65.3342 14.3769C66.29 14.5353 66.4244 15.0951 66.452 15.7857C66.4796 16.4523 65.8922 17.4357 64.8812 17.4873C64.5608 17.4873 64.1906 17.4873 63.8425 17.4596L63.7081 17.618C63.7081 17.618 63.5221 18.5498 63.8941 19.5608C64.2403 20.5442 65.3581 21.0525 65.3305 22.5405C65.3029 24.0045 64.6915 25.2825 62.1391 25.2825C59.5867 25.2825 58.8391 23.1519 58.9459 22.2237C59.0785 21.2661 59.4247 19.9623 59.1043 15.7047C58.7857 11.4746 58.2001 10.4084 58.2001 10.4084C58.2001 10.4084 57.8281 9.05117 58.6255 7.93335C59.4229 6.81554 61.1005 6.65532 62.3491 6.76213C63.2017 6.84132 64.2919 6.94813 65.4336 6.94813C65.9916 6.94813 66.5772 6.92051 67.1628 6.84132C67.8295 6.73451 68.4133 6.65532 68.9436 6.65532C69.7134 6.65532 70.4058 6.84132 71.0982 7.3459C72.2676 8.19853 72.507 10.3808 71.3634 10.9369L71.3689 10.9424L71.3726 10.9443Z" fill="#0F0F0F"/>
<path d="M85.256 10.9443C84.9098 11.1026 84.4826 11.1837 84.0056 11.1837C82.943 11.1837 81.6926 10.8632 80.7608 10.7049C79.3778 10.4913 77.8346 11.0253 77.2508 12.2481C76.6928 13.4727 77.4368 14.2701 77.4368 14.2701L77.6228 14.4045C78.1827 14.353 78.7922 14.2977 79.2176 14.3769C80.1734 14.5353 80.3078 15.0951 80.3354 15.7857C80.363 16.4523 79.7756 17.4357 78.7646 17.4873C78.446 17.4873 78.074 17.4873 77.7296 17.4596L77.5952 17.618C77.5952 17.618 77.4092 18.5498 77.7812 19.5608C78.1274 20.5442 79.2434 21.0525 79.2176 22.5405C79.19 24.0045 78.5786 25.2825 76.0244 25.2825C73.4701 25.2825 72.7262 23.1519 72.833 22.2237C72.9637 21.2661 73.3118 19.9623 72.9913 15.7047C72.6728 11.4746 72.0872 10.4084 72.0872 10.4084C72.0872 10.4084 71.7152 9.05117 72.5125 7.93335C73.3099 6.81554 74.9876 6.65532 76.2361 6.76213C77.0888 6.84132 78.179 6.94813 79.3226 6.94813C79.8824 6.94813 80.4662 6.92051 81.0518 6.84132C81.7166 6.73451 82.3022 6.65532 82.8325 6.65532C83.6023 6.65532 84.2966 6.84132 84.9872 7.3459C86.1565 8.19853 86.3959 10.3808 85.2523 10.9369V10.9424L85.256 10.9443Z" fill="#0F0F0F"/>
<path d="M20.1483 37.8695C20.8592 37.9358 21.3951 38.0536 21.3011 38.2507C21.2569 38.3427 21.0746 38.4514 20.7082 38.5803L5.36995 41.8509C4.22083 42.0976 3.47133 43.2873 3.70336 44.5119C3.91698 45.65 4.90036 46.4161 5.96109 46.3203L23.1629 44.8194C23.3139 44.8065 23.3489 45.0404 23.1998 45.0754L11.3826 48.0127C10.5189 48.2281 9.92225 49.1102 10.0677 50.042C10.2169 50.9886 11.0272 51.6166 11.889 51.5208C25.347 50.0218 39.9633 48.4565 52.2998 42.0976C55.83 40.2782 59.3676 36.6375 58.3088 32.0723C56.1468 22.7486 44.2909 22.2605 37.1329 21.3343C27.067 20.0323 16.9459 19.2993 6.84687 18.3767C5.52096 18.2552 4.31475 19.3086 4.23556 20.721C4.16559 21.9641 4.96666 23.0561 6.08631 23.3121L19.5314 26.4187C23.9143 27.137 24.6288 27.6139 24.6288 27.6139C24.9713 27.7778 25.2494 28.0062 25.3102 28.3247C25.3102 28.3247 25.4299 28.5365 25.3765 28.8422C25.3765 28.8422 25.3765 28.8514 25.3746 28.8569C25.2881 29.7059 24.1482 30.1534 24.1482 30.1534C21.4411 31.6266 12.6238 31.9618 12.6238 31.9618C11.3992 32.0391 10.3532 32.0686 9.54841 32.0741L7.76212 32.052L2.47505 31.9857C1.17124 31.9692 0.0497405 33.0409 1.88377e-05 34.4313C-0.0478612 35.7627 0.871068 36.8842 2.07728 37.0537L3.62417 37.2691L20.1502 37.8658H20.1483V37.8695Z" fill="#FFCD1D"/>
<path d="M9.63305 21.5681C9.73065 21.3251 9.9903 19.4504 6.34958 19.106C6.1691 19.0894 6.00152 19.2183 5.96285 19.4099L5.48037 21.791C5.42512 22.0672 5.58902 22.3379 5.85052 22.3932C6.856 22.6123 9.18003 22.9272 9.63489 21.57C9.62936 21.5847 9.64041 21.5553 9.63489 21.57L9.63305 21.5681Z" fill="#F8F8F8"/>
<path d="M5.26308 34.877C5.33306 34.6228 5.39936 32.7297 1.74206 32.8144C1.5579 32.82 1.4069 32.9655 1.38848 33.1607L1.15461 35.5804C1.12698 35.8622 1.32034 36.109 1.58368 36.1366C2.60758 36.236 4.94818 36.2784 5.26124 34.877C5.25572 34.8917 5.26308 34.8622 5.26124 34.877H5.26308Z" fill="#F8F8F8"/>
<path d="M8.35695 44.1086C8.40483 43.8784 8.33485 42.1861 5.05691 42.6023C4.89301 42.6225 4.76594 42.7698 4.7641 42.9429L4.71991 45.1178C4.71438 45.3682 4.90406 45.5727 5.14162 45.5727C6.06607 45.5653 8.16911 45.383 8.35695 44.1086C8.35695 44.0939 8.35511 44.1234 8.35695 44.1086Z" fill="#F8F8F8"/>
<path d="M13.4064 49.6738C13.423 49.5025 13.2941 48.2945 10.9443 48.7788C10.8283 48.8027 10.7436 48.915 10.7472 49.0421L10.8209 50.6203C10.8301 50.8008 10.9774 50.9407 11.1487 50.926C11.8172 50.8689 13.3328 50.6074 13.4027 49.6756C13.4027 49.6664 13.4027 49.6848 13.4027 49.6756H13.4046L13.4064 49.6738Z" fill="#F8F8F8"/>
<path d="M59.8906 29.6709C59.4579 29.2308 58.9441 28.868 58.3806 28.5899C58.1909 28.4979 58.0012 28.4132 57.8023 28.3395C57.3456 28.1645 56.8687 28.043 56.3806 27.9693C56.0252 27.9141 55.6643 27.8865 55.307 27.8865C54.587 27.8865 53.8688 27.9951 53.2132 28.2216C52.8191 28.3579 52.449 28.5347 52.112 28.7557C51.8357 28.9362 51.6018 29.1387 51.4066 29.3579C51.309 29.4665 51.2206 29.5789 51.1415 29.693C51.0218 29.8643 50.926 30.0466 50.8487 30.2289C50.7971 30.3541 50.7547 30.4775 50.7198 30.6046C50.6995 30.6764 50.6829 30.7519 50.6682 30.8256C50.6461 30.9379 50.6314 31.0521 50.6203 31.1663C50.6129 31.2381 50.6111 31.3099 50.6074 31.3817C50.5945 31.9084 50.705 32.4461 50.9076 32.9526C50.9334 33.017 50.9591 33.0796 50.9886 33.1422C51.1304 33.4553 51.309 33.7555 51.5171 34.0335C51.6018 34.1459 51.6884 34.2527 51.7805 34.3558C51.8284 34.4074 51.8744 34.4571 51.9223 34.5105C52.1193 34.7075 52.309 34.8825 52.4932 35.0464C52.7657 35.2895 53.0254 35.4994 53.2592 35.6872C53.4931 35.8788 53.7067 36.05 53.8909 36.2195C54.075 36.3889 54.2334 36.5565 54.3605 36.7369C54.4875 36.9174 54.5796 37.1126 54.6367 37.3336C54.6735 37.4827 54.6956 37.6448 54.6993 37.8234C54.7048 38.0223 54.6846 38.1917 54.6422 38.3335C54.6201 38.4035 54.5944 38.468 54.563 38.5251C54.4986 38.6392 54.4157 38.7258 54.3163 38.7902C54.1671 38.8878 53.9866 38.9302 53.7822 38.9302C53.5778 38.9302 53.3605 38.8786 53.134 38.7884C53.0198 38.7442 52.9075 38.6908 52.797 38.6319C52.6847 38.5729 52.576 38.5048 52.4692 38.4348C52.3992 38.3869 52.3256 38.3483 52.2482 38.3114C52.0199 38.2046 51.7694 38.1531 51.5061 38.1531C50.9923 38.1531 50.4509 38.3648 50.0439 38.7921C49.961 38.8768 49.8855 38.9707 49.8156 39.0757C49.6756 39.2819 49.5614 39.5232 49.4878 39.7994C49.3957 40.1327 49.3644 40.5379 49.4178 40.9669C49.4399 41.1511 49.4804 41.3389 49.5393 41.5286C49.6167 41.7791 49.7253 42.0332 49.869 42.28C49.9776 42.4641 50.1084 42.6427 50.2612 42.8159C50.3201 42.8821 50.3827 42.9466 50.4509 43.0092C50.4988 43.0571 50.5485 43.1013 50.6 43.1455C50.7216 43.2523 50.856 43.3536 50.9997 43.4493C51.7952 43.9779 52.9351 44.3333 54.517 44.3333C55.2131 44.3333 55.8319 44.267 56.3825 44.1436C56.4248 44.1344 56.4672 44.1233 56.5059 44.116C57.2241 43.9466 57.817 43.6851 58.3069 43.3646C58.3695 43.3241 58.4284 43.2818 58.4874 43.2413C58.6734 43.1068 58.8428 42.9632 58.9975 42.814C59.3529 42.4641 59.6181 42.0792 59.8096 41.6815C59.8612 41.5747 59.9072 41.4678 59.9459 41.3592C59.9606 41.3168 59.9753 41.2745 59.9901 41.234C60.0287 41.118 60.0637 41.0001 60.0914 40.8841C60.1245 40.7515 60.1466 40.6207 60.1613 40.4881C60.1761 40.3556 60.1871 40.2303 60.189 40.1051C60.1908 39.9154 60.1797 39.735 60.154 39.5637C59.9698 38.4459 58.9662 37.6172 57.7986 36.7977C57.0252 36.2563 56.1836 35.7167 55.4544 35.098C55.3715 35.028 55.2978 34.9562 55.226 34.8825C55.2039 34.8604 55.1836 34.8346 55.1634 34.8125C55.1137 34.7573 55.0658 34.7039 55.0253 34.6468C55.005 34.6192 54.9848 34.5952 54.9663 34.5676C54.924 34.5087 54.8816 34.4479 54.8448 34.3871C54.8301 34.365 54.8153 34.3429 54.8024 34.319C54.7527 34.2343 54.7085 34.1496 54.6662 34.063C54.6606 34.0501 54.657 34.0372 54.6514 34.028C54.6164 33.9544 54.587 33.8789 54.5594 33.8052C54.5465 33.7739 54.5373 33.7426 54.5262 33.7113C54.506 33.6542 54.4894 33.5989 54.4747 33.5419C54.4654 33.505 54.4544 33.47 54.4452 33.4332C54.4323 33.3835 54.4231 33.3319 54.4139 33.2822C54.4065 33.2454 54.3991 33.2048 54.3918 33.168C54.3844 33.1238 54.3789 33.0815 54.3752 33.0373C54.366 32.9452 54.3586 32.8586 54.3531 32.7684C54.3531 32.7481 54.3531 32.726 54.3513 32.7058V32.4903C54.3807 31.936 54.5575 31.4922 54.8227 31.3394C54.8282 31.3375 54.8356 31.3338 54.8411 31.332C54.9387 31.2602 55.0326 31.2086 55.1026 31.1755C55.3604 31.0613 55.749 30.9619 56.3144 30.9619C56.3144 30.9619 57.9294 30.9637 58.3124 32.0649C58.3143 32.0705 58.318 32.0723 58.3198 32.0778C58.62 33.3724 58.55 34.5934 58.2148 35.7186C58.4929 35.8033 58.7839 35.8548 59.0748 35.8548C59.6162 35.8548 60.1558 35.713 60.6254 35.3374C62.0121 34.3042 61.8224 31.6727 59.898 29.6746L59.8906 29.6709Z" fill="#0F0F0F"/>
<path d="M30.9711 32.3504C30.1958 32.634 28.0338 35.6872 28.8312 38.0131C29.2069 39.1199 29.8901 39.4477 30.6396 39.4477C31.4389 39.4477 32.332 39.072 32.9434 38.9063C33.1552 38.8363 33.4388 38.8123 33.7187 38.8123C35.0114 38.8123 36.7738 39.398 36.9856 40.6207C37.2195 42.1234 35.505 44.3333 30.8072 44.3333C26.1094 44.3333 24.7927 41.5599 24.6031 39.3501C24.3913 37.166 26.2954 31.5714 28.4556 29.3855C29.5144 28.3266 30.8275 27.8828 32.0981 27.8828C33.4369 27.8828 34.7058 28.3782 35.6228 29.1756C37.4091 30.774 37.6669 33.7113 37.0095 35.4497C36.6559 36.3889 35.7646 36.8143 34.8715 36.8143C34.1183 36.8143 33.343 36.5086 32.8513 35.9911C32.076 35.1458 32.1239 33.6395 32.1939 32.8642C32.216 32.5364 31.9582 32.2307 31.5825 32.2307C31.3928 32.2307 31.2068 32.2528 30.9711 32.3485V32.3504Z" fill="#0F0F0F"/>
<path d="M42.9282 31.0944C42.0111 31.1644 41.3297 33.8457 41.3297 35.7959C41.3297 37.7461 41.6833 38.1696 42.105 38.2396C42.5267 38.3096 44.2191 38.0278 44.2191 38.0278C44.2191 38.0278 44.0773 35.702 44.2191 33.9157C44.3609 32.1294 43.8674 31.0263 42.9282 31.0944ZM46.6868 43.6445C44.2191 43.6445 43.8674 41.4605 43.5396 40.4716C43.3978 40.0719 43.186 39.8381 42.954 39.8381C42.6262 39.8381 42.2965 40.3316 42.2266 41.5783C42.1106 43.6924 40.9338 43.7182 39.9965 43.6464C38.6098 43.5304 37.4349 43.0129 38.0942 40.757C38.7755 38.525 38.0463 36.6669 37.8363 33.8936C37.6025 31.1202 39.2691 26.8902 44.2265 27.1719C49.2079 27.4298 48.4786 31.2381 48.2429 33.5639C48.009 35.8898 48.009 38.0039 48.9243 39.8381C49.8156 41.6465 49.136 43.6445 46.6905 43.6445H46.6868Z" fill="#0F0F0F"/>
<path d="M73.5401 31.553C73.2565 31.7426 72.8348 31.8108 72.3431 31.8108C71.7096 31.8108 70.9343 31.6948 70.0173 31.5309C69.5698 31.4369 69.1002 31.3891 68.6785 31.3891C67.5735 31.3891 66.6343 31.7426 66.2347 32.564C65.7173 33.7149 66.4244 34.632 66.4244 34.632L66.5662 34.7259C67.0137 34.7038 67.4354 34.7038 67.8111 34.7259C68.5385 34.7738 68.9381 35.1477 68.7742 36.2765C68.5845 37.3833 67.9989 37.3833 67.0818 37.4275H66.7283L66.5865 37.5435C66.4226 37.8713 66.4226 39.0002 67.08 39.3998C67.2697 39.4937 67.4557 39.5416 67.6914 39.5416C68.3249 39.5416 69.1241 39.1659 69.8994 38.6503C70.3211 38.3667 70.7207 38.2507 71.0964 38.2507C71.7078 38.2507 72.2474 38.5563 72.5991 39.0259C73.1884 39.8012 73.6322 41.5636 72.3192 42.7164C70.9804 43.8674 67.8074 44.3388 65.3655 44.3388C62.9236 44.3388 62.1465 42.3407 62.4522 41.0958C62.78 39.851 62.594 39.3814 62.664 36.0905C62.7119 32.8236 61.7948 31.297 61.7948 31.297C61.7948 31.297 61.3731 30.2639 61.9108 29.2768C62.4485 28.2898 63.6492 27.938 64.4006 27.8901C65.1758 27.8423 66.3029 28.1259 68.3009 28.054C69.3598 28.0319 70.2033 27.8901 70.9785 27.8901C71.6378 27.8901 72.2474 28.008 72.8348 28.3855C74.1036 29.2308 74.1736 31.111 73.5401 31.5585V31.553Z" fill="#0F0F0F"/>
<path d="M79.8142 31.1994C79.6245 31.1994 79.4385 31.2694 79.2967 31.3412C78.6375 31.7169 78.4975 33.9028 79.9302 35.1016C81.7644 36.6522 84.3223 37.7111 84.628 39.5673C84.9116 41.4015 83.5949 44.3388 78.9892 44.3388C74.3835 44.3388 73.5382 41.3297 73.9618 39.8031C74.2675 38.6963 75.1588 38.1586 75.982 38.1586C76.3355 38.1586 76.6633 38.2525 76.9451 38.4422C77.3668 38.7221 77.8622 38.9357 78.2618 38.9357C78.8032 38.9357 79.201 38.63 79.1789 37.8289C79.1531 36.3944 77.9819 36.0887 76.4055 34.516C74.8549 32.9175 74.3853 30.2142 76.5952 28.7575C77.4865 28.1719 78.6393 27.8883 79.7903 27.8883C81.4827 27.8883 83.2211 28.4997 84.372 29.6746C86.2964 31.6727 86.4861 34.3042 85.0994 35.3373C84.6298 35.713 84.0884 35.8548 83.5489 35.8548C82.6097 35.8548 81.6686 35.3613 81.177 34.7259C80.3777 33.7389 80.7074 32.2104 80.7074 32.2104C80.6374 31.4572 80.2138 31.1994 79.8161 31.1994H79.8142Z" fill="#0F0F0F"/>
</g>
<defs>
<clipPath id="clip0_3194_11348">
<rect width="86" height="52" fill="white"/>
</clipPath>
</defs>
</svg>
