<svg xmlns="http://www.w3.org/2000/svg" fill="none" viewBox="0 0 104 63">
    <path fill="#00CA43" d="M37.374.186 21.519 4.244a6.007 6.007 0 0 0-3.678 2.764 6.046 6.046 0 0 0-.655 4.565L28.328 55.46a6.025 6.025 0 0 0 2.752 3.694 5.985 5.985 0 0 0 4.547.659l15.854-4.058a6.008 6.008 0 0 0 3.678-2.765 6.047 6.047 0 0 0 .655-4.565L44.672 4.538A6.024 6.024 0 0 0 41.92.845a5.985 5.985 0 0 0-4.546-.659Z"/>
    <path fill="#F8F8F8" d="m26.638 4.17-3.772 1.026c-1.32.359-2.451 1.262-3.146 2.51a5.792 5.792 0 0 0-.561 4.148l.963 4.023c.166.697.459 1.352.862 1.928a5.26 5.26 0 0 0 1.49 1.428c.579.367 1.22.609 1.888.711a4.82 4.82 0 0 0 2-.114l3.774-1.027c1.319-.36 2.45-1.262 3.145-2.51a5.793 5.793 0 0 0 .56-4.147l-.961-4.024a5.633 5.633 0 0 0-.863-1.927 5.26 5.26 0 0 0-1.49-1.429 4.925 4.925 0 0 0-1.889-.71 4.82 4.82 0 0 0-2 .115Z"/>
    <path fill="#FFCD1D" d="M24.455 46.111c.863.082 1.513.228 1.399.47-.053.115-.274.248-.72.408L6.52 51.032c-1.395.306-2.304 1.776-2.023 3.29.26 1.408 1.453 2.355 2.74 2.236l20.878-1.854c.182-.018.226.271.045.315L13.817 58.65c-1.049.266-1.772 1.356-1.596 2.508.181 1.171 1.165 1.948 2.21 1.829 16.333-1.854 34.072-3.79 49.044-11.65 4.285-2.25 8.579-6.75 7.294-12.395-2.624-11.526-17.013-12.13-25.7-13.275-12.217-1.61-24.5-2.516-36.757-3.656-1.61-.15-3.073 1.152-3.169 2.898-.085 1.537.886 2.887 2.245 3.203l16.318 3.841c5.32.888 6.187 1.478 6.187 1.478.415.202.752.484.826.877 0 0 .146.263.082.64 0 0 0 .013-.003.02-.105 1.049-1.489 1.602-1.489 1.602-3.285 1.822-13.986 2.236-13.986 2.236a65.954 65.954 0 0 1-3.733.139l-2.168-.028-6.416-.081C1.423 38.816.063 40.14.002 41.858c-.058 1.647 1.057 3.033 2.52 3.243l1.878.266 20.057.738h-.002v.006Z"/>
    <path fill="#F8F8F8" d="M11.689 26.941c.112-.29.408-2.53-3.75-2.94a.408.408 0 0 0-.288.093.443.443 0 0 0-.154.27l-.552 2.842c-.063.33.124.653.422.719 1.15.263 3.804.638 4.324-.983.006-.018-.007.018 0 0l-.002-.002v.001ZM6.697 42.834c.08-.303.155-2.564-4.021-2.464a.416.416 0 0 0-.279.127.453.453 0 0 0-.127.288l-.266 2.89a.616.616 0 0 0 .115.437.566.566 0 0 0 .375.227c1.17.118 3.843.168 4.2-1.505.003-.018-.005.018 0 0h.003Zm3.534 11.024c.055-.274-.025-2.296-3.77-1.8a.389.389 0 0 0-.239.139.422.422 0 0 0-.095.268l-.05 2.598a.538.538 0 0 0 .13.378.497.497 0 0 0 .352.166c1.055-.01 3.457-.227 3.672-1.749 0-.018-.002.017 0 0ZM16 60.504c.019-.206-.128-1.648-2.813-1.069a.295.295 0 0 0-.166.115.319.319 0 0 0-.059.2l.085 1.883c.011.215.178.383.374.366.764-.068 2.495-.381 2.575-1.493 0 .01 0-.012 0 0h.003v-.002Z"/>
    <path fill="#0F0F0F" d="M24.108 18.635a2.783 2.783 0 0 0 1.953-.812 2.743 2.743 0 0 0 .802-1.945 2.73 2.73 0 0 0-.817-1.938 2.766 2.766 0 0 0-1.958-.797 2.775 2.775 0 0 0-1.953.811 2.736 2.736 0 0 0 .015 3.884c.52.513 1.225.8 1.959.797Zm-1.331-6.143a2.78 2.78 0 0 0 1.952-.812 2.743 2.743 0 0 0 .802-1.945 2.729 2.729 0 0 0-.817-1.938A2.768 2.768 0 0 0 22.755 7a2.775 2.775 0 0 0-1.952.812 2.736 2.736 0 0 0 .014 3.883c.52.513 1.227.8 1.96.797Zm5.884 1.944a2.782 2.782 0 0 0 1.952-.812 2.744 2.744 0 0 0 .803-1.944 2.73 2.73 0 0 0-.817-1.94 2.766 2.766 0 0 0-1.959-.796 2.775 2.775 0 0 0-1.952.811 2.736 2.736 0 0 0 .015 3.884c.52.513 1.225.8 1.958.797Zm18.108-.28c-.291-1.186-.906-1.637-1.646-1.637-2.522 0-3.718 3.499-3.977 5.457-.322 2.6.226 5.714.226 5.714.42.418.97.642 1.519.642 1.004 0 2.102-.706 2.878-2.245 1.262-2.44 1.455-6.067 1.003-7.927l-.003-.004Zm6.756 1.576c0 3.69-1.263 8.056-3.718 11.556-2.456 3.5-5.492 3.724-7.045 3.724s-4.235 0-5.042-.547c-.807-.546-1.615-1.862-1.55-2.89.097-1.058.681-1.924.84-4.302.096-1.445-.097-5.872-.357-8.7-1.064-.257-1.454-1.604-1.583-2.537-.291-2.052 2.23-3.435 3.232-3.402.614.032 1.196.128 2.232.128.612 0 1.386-.034 2.423-.13.71-.064 1.422-.096 2.134-.095 2.26 0 4.558.354 5.56 1.09 1.324.996 2.877 2.41 2.877 6.1h-.002l-.001.005Zm10.372 2.437c0-2.471-1.036-4.462-2.327-4.462s-2.36 1.991-2.36 4.462c0 2.471 1.065 4.428 2.36 4.428s2.327-1.99 2.327-4.428Zm6.27 1.573c0 6.195-3.686 11.206-8.208 11.206-4.521 0-8.176-5.009-8.176-11.206 0-6.196 3.653-11.2 8.177-11.2 4.524 0 8.206 5.007 8.206 11.2Zm16.06-6.035c-.421.192-.94.29-1.519.29-1.291 0-2.811-.386-3.943-.58-1.68-.256-3.555.388-4.265 1.864-.678 1.478.226 2.44.226 2.44l.226.162c.68-.063 1.422-.129 1.938-.034 1.161.191 1.324.867 1.358 1.7.034.804-.68 1.991-1.907 2.053-.39 0-.84 0-1.264-.033l-.163.19s-.226 1.125.226 2.345c.42 1.186 1.779 1.8 1.746 3.596-.034 1.765-.777 3.307-3.878 3.307-3.1 0-4.01-2.57-3.88-3.69.162-1.156.582-2.73.192-7.867-.386-5.103-1.098-6.39-1.098-6.39s-.452-1.637.517-2.986c.97-1.347 3.007-1.542 4.524-1.411 1.036.094 2.36.223 3.748.223.678 0 1.39-.033 2.101-.13.81-.127 1.519-.224 2.163-.224.935 0 1.777.225 2.618.833 1.422 1.03 1.712 3.663.322 4.334l.007.006.005.002Z"/>
    <path fill="#0F0F0F" d="M103.095 13.707c-.421.192-.939.29-1.519.29-1.291 0-2.81-.386-3.942-.58-1.68-.256-3.556.388-4.265 1.864-.678 1.478.226 2.44.226 2.44l.226.162c.68-.063 1.421-.129 1.938-.034 1.16.191 1.324.867 1.357 1.7.034.804-.68 1.991-1.908 2.053-.387 0-.84 0-1.257-.033l-.164.19s-.226 1.125.226 2.345c.42 1.186 1.776 1.8 1.746 3.596-.034 1.765-.778 3.307-3.88 3.307-3.104 0-4.008-2.57-3.878-3.69.158-1.156.582-2.73.192-7.867-.386-5.103-1.098-6.39-1.098-6.39s-.452-1.637.516-2.986c.97-1.347 3.008-1.542 4.525-1.411 1.036.094 2.36.223 3.75.223.68 0 1.39-.033 2.101-.13.808-.127 1.519-.224 2.163-.224.935 0 1.78.225 2.618.833 1.422 1.03 1.712 3.663.322 4.334v.006l.005.002ZM72.275 36.301a6.768 6.768 0 0 0-1.834-1.303 8.316 8.316 0 0 0-2.43-.748 8.583 8.583 0 0 0-1.304-.1c-.875 0-1.747.13-2.544.404-.471.16-.92.375-1.338.644a4.244 4.244 0 0 0-1.178 1.13 3.527 3.527 0 0 0-.576 1.367 4.224 4.224 0 0 0-.058.411c-.009.087-.011.174-.016.26-.008.65.115 1.294.364 1.895a5.776 5.776 0 0 0 1.06 1.693l.173.187c.24.239.47.45.694.647.332.293.647.546.93.773.285.232.545.438.769.642.223.205.415.406.57.625.155.217.267.453.336.72.044.18.072.374.076.591.007.24-.017.444-.07.616a1.287 1.287 0 0 1-.096.23.902.902 0 0 1-.3.32c-.195.118-.42.177-.649.169a2.15 2.15 0 0 1-.787-.172 3.766 3.766 0 0 1-.41-.188 4.826 4.826 0 0 1-.398-.237 2.122 2.122 0 0 0-1.17-.34c-.624 0-1.282.255-1.776.772-.103.104-.196.219-.277.34-.17.25-.31.54-.399.873-.12.46-.149.939-.085 1.41.027.221.075.448.147.678.095.301.226.608.401.906.133.222.292.438.476.646.073.08.149.157.231.233.206.197.429.375.667.531.966.638 2.351 1.067 4.273 1.067.846 0 1.598-.08 2.266-.23.052-.01.104-.024.15-.032a6.837 6.837 0 0 0 2.188-.906c.078-.048.148-.1.22-.15a5.71 5.71 0 0 0 .62-.515 4.878 4.878 0 0 0 1.153-1.755l.053-.151c.047-.14.09-.283.123-.423.07-.308.11-.623.119-.94a4.109 4.109 0 0 0-.043-.652c-.223-1.35-1.443-2.35-2.861-3.338-.94-.654-1.962-1.304-2.85-2.05a3.859 3.859 0 0 1-.276-.26l-.077-.085a2.255 2.255 0 0 1-.167-.2c-.025-.034-.049-.063-.072-.096-.052-.07-.101-.143-.147-.218a.928.928 0 0 1-.052-.082 4.598 4.598 0 0 1-.166-.308c-.006-.016-.01-.032-.018-.043a3.373 3.373 0 0 1-.112-.269l-.04-.113a2.407 2.407 0 0 1-.062-.205l-.036-.13c-.016-.061-.027-.123-.038-.182l-.026-.138a8.131 8.131 0 0 1-.048-.483c0-.024 0-.05-.002-.075v-.26c.036-.669.25-1.205.573-1.388l.022-.01c.12-.087.233-.148.318-.189.313-.138.785-.257 1.472-.257 0 0 1.962.002 2.427 1.33.003.008.007.01.01.017a8.419 8.419 0 0 1-.128 4.391c.338.103.692.166 1.045.166.658 0 1.312-.172 1.883-.625 1.686-1.247 1.455-4.421-.883-6.832l-.008-.005h-.002ZM37.14 39.535c-.941.342-3.568 4.026-2.6 6.832.457 1.336 1.288 1.732 2.198 1.732.97 0 2.056-.454 2.798-.654.258-.085.603-.114.943-.114 1.57 0 3.712.707 3.97 2.183.282 1.812-1.8 4.479-7.508 4.479s-7.307-3.346-7.538-6.013c-.257-2.635 2.056-9.385 4.681-12.023a6.205 6.205 0 0 1 4.425-1.812c1.627 0 3.17.597 4.283 1.56 2.17 1.928 2.484 5.472 1.686 7.57-.43 1.133-1.513 1.646-2.6 1.646-.914 0-1.856-.368-2.454-.993-.941-1.02-.883-2.838-.798-3.773a.719.719 0 0 0-.45-.71.733.733 0 0 0-.293-.054c-.231 0-.456.027-.741.141l-.002.003Zm14.528-1.516c-1.114.085-1.942 3.32-1.942 5.673s.43 2.865.942 2.95c.513.084 2.568-.257 2.568-.257s-.172-2.806 0-4.96c.173-2.157-.428-3.488-1.568-3.406Zm4.567 15.142c-2.999 0-3.426-2.633-3.824-3.827-.172-.482-.43-.765-.712-.765-.398 0-.798.596-.883 2.1-.14 2.55-1.57 2.582-2.71 2.495-1.684-.14-3.112-.764-2.311-3.486.827-2.693-.059-4.935-.314-8.28-.283-3.347 1.741-8.451 7.764-8.11 6.053.31 5.167 4.905 4.88 7.711-.284 2.807-.284 5.357.828 7.57 1.084 2.183.258 4.592-2.713 4.592h-.005Z"/>
    <path fill="#0F0F0F" d="M88.86 38.573c-.345.23-.856.311-1.454.311-.77 0-1.712-.14-2.826-.337a8.152 8.152 0 0 0-1.626-.172c-1.344 0-2.485.427-2.97 1.418-.629 1.387.231 2.495.231 2.495l.172.113a14.374 14.374 0 0 1 1.512 0c.884.058 1.37.51 1.17 1.87-.23 1.336-.941 1.336-2.055 1.39h-.43l-.172.14c-.199.395-.199 1.757.6 2.24.23.113.456.171.742.171.77 0 1.74-.454 2.682-1.076.513-.342.999-.483 1.455-.483.743 0 1.398.37 1.826.937.717.935 1.255 3.062-.34 4.452C85.75 53.43 81.893 54 78.926 54c-2.965 0-3.91-2.41-3.539-3.913.399-1.502.173-2.07.258-6.039.058-3.941-1.057-5.784-1.057-5.784s-.51-1.246.142-2.437c.654-1.19 2.112-1.616 3.025-1.674.942-.057 2.311.285 4.739.198 1.286-.026 2.31-.198 3.252-.198.802 0 1.543.143 2.257.598 1.541 1.02 1.626 3.289.856 3.828v-.006Zm7.623-.426c-.231 0-.456.085-.628.17-.802.454-.972 3.091.769 4.537 2.228 1.871 5.336 3.149 5.708 5.388.345 2.213-1.255 5.758-6.851 5.758-5.597 0-6.622-3.632-6.108-5.473.37-1.336 1.454-1.983 2.454-1.983.416-.006.824.113 1.17.341.513.338 1.114.596 1.6.596.657 0 1.141-.37 1.114-1.336-.031-1.731-1.454-2.099-3.369-3.997-1.884-1.93-2.454-5.19.231-6.947 1.081-.707 2.482-1.05 3.88-1.05 2.058 0 4.169.738 5.568 2.156 2.337 2.41 2.568 5.587.883 6.832-.571.453-1.227.625-1.883.625-1.142 0-2.284-.596-2.882-1.364-.972-1.19-.571-3.034-.571-3.034-.085-.909-.6-1.219-1.081-1.219h-.004Z"/>
</svg>
